<?xml version="1.0" encoding="utf-8"?>
<svg xmlns="http://www.w3.org/2000/svg" width="1063.75" height="1108.0729166667" viewBox="0 0 1063.75 1108.0729166667">
  <rect width="984.85520833333" height="984.85520833333" fill="#ffffff" x="44.322916666667" y="44.322916666667"/>
  <g transform="scale(44.322916666667)" fill="#000000">
    <path d="M1,8V2c0-0.6,0.5-1,1-1h6V0H2C0.9,0,0,0.9,0,2v6H1z"/>
    <path d="M16,1h6c0.6,0,1,0.5,1,1v6h1V2c0-1.1-0.9-2-2-2h-6V1z"/>
    <path d="M23,16v6c0,0.6-0.5,1-1,1h-6v1h6c1.1,0,2-0.9,2-2v-6H23z"/>
    <path d="M8,23H2c-0.6,0-1-0.5-1-1v-6H0v6c0,1.1,0.9,2,2,2h6V23z"/>
  </g>
  <g fill="#000000">
    <g transform="translate(290.375,106.375) scale(3.9483333333333)">
      <rect width="6" height="6"/>
    </g>
    <g transform="translate(313.375,106.375) scale(3.9483333333333)">
      <rect width="6" height="6"/>
    </g>
    <g transform="translate(336.375,106.375) scale(3.9483333333333)">
      <rect width="6" height="6"/>
    </g>
    <g transform="translate(405.375,106.375) scale(3.9483333333333)">
      <rect width="6" height="6"/>
    </g>
    <g transform="translate(428.375,106.375) scale(3.9483333333333)">
      <rect width="6" height="6"/>
    </g>
    <g transform="translate(474.375,106.375) scale(3.9483333333333)">
      <rect width="6" height="6"/>
    </g>
    <g transform="translate(497.375,106.375) scale(3.9483333333333)">
      <rect width="6" height="6"/>
    </g>
    <g transform="translate(543.375,106.375) scale(3.9483333333333)">
      <rect width="6" height="6"/>
    </g>
    <g transform="translate(566.375,106.375) scale(3.9483333333333)">
      <rect width="6" height="6"/>
    </g>
    <g transform="translate(704.375,106.375) scale(3.9483333333333)">
      <rect width="6" height="6"/>
    </g>
    <g transform="translate(750.375,106.375) scale(3.9483333333333)">
      <rect width="6" height="6"/>
    </g>
    <g transform="translate(359.375,129.375) scale(3.9483333333333)">
      <rect width="6" height="6"/>
    </g>
    <g transform="translate(451.375,129.375) scale(3.9483333333333)">
      <rect width="6" height="6"/>
    </g>
    <g transform="translate(474.375,129.375) scale(3.9483333333333)">
      <rect width="6" height="6"/>
    </g>
    <g transform="translate(566.375,129.375) scale(3.9483333333333)">
      <rect width="6" height="6"/>
    </g>
    <g transform="translate(589.375,129.375) scale(3.9483333333333)">
      <rect width="6" height="6"/>
    </g>
    <g transform="translate(635.375,129.375) scale(3.9483333333333)">
      <rect width="6" height="6"/>
    </g>
    <g transform="translate(658.375,129.375) scale(3.9483333333333)">
      <rect width="6" height="6"/>
    </g>
    <g transform="translate(727.375,129.375) scale(3.9483333333333)">
      <rect width="6" height="6"/>
    </g>
    <g transform="translate(750.375,129.375) scale(3.9483333333333)">
      <rect width="6" height="6"/>
    </g>
    <g transform="translate(336.375,152.375) scale(3.9483333333333)">
      <rect width="6" height="6"/>
    </g>
    <g transform="translate(474.375,152.375) scale(3.9483333333333)">
      <rect width="6" height="6"/>
    </g>
    <g transform="translate(497.375,152.375) scale(3.9483333333333)">
      <rect width="6" height="6"/>
    </g>
    <g transform="translate(520.375,152.375) scale(3.9483333333333)">
      <rect width="6" height="6"/>
    </g>
    <g transform="translate(589.375,152.375) scale(3.9483333333333)">
      <rect width="6" height="6"/>
    </g>
    <g transform="translate(635.375,152.375) scale(3.9483333333333)">
      <rect width="6" height="6"/>
    </g>
    <g transform="translate(704.375,152.375) scale(3.9483333333333)">
      <rect width="6" height="6"/>
    </g>
    <g transform="translate(727.375,152.375) scale(3.9483333333333)">
      <rect width="6" height="6"/>
    </g>
    <g transform="translate(750.375,152.375) scale(3.9483333333333)">
      <rect width="6" height="6"/>
    </g>
    <g transform="translate(382.375,175.375) scale(3.9483333333333)">
      <rect width="6" height="6"/>
    </g>
    <g transform="translate(405.375,175.375) scale(3.9483333333333)">
      <rect width="6" height="6"/>
    </g>
    <g transform="translate(428.375,175.375) scale(3.9483333333333)">
      <rect width="6" height="6"/>
    </g>
    <g transform="translate(451.375,175.375) scale(3.9483333333333)">
      <rect width="6" height="6"/>
    </g>
    <g transform="translate(474.375,175.375) scale(3.9483333333333)">
      <rect width="6" height="6"/>
    </g>
    <g transform="translate(497.375,175.375) scale(3.9483333333333)">
      <rect width="6" height="6"/>
    </g>
    <g transform="translate(612.375,175.375) scale(3.9483333333333)">
      <rect width="6" height="6"/>
    </g>
    <g transform="translate(635.375,175.375) scale(3.9483333333333)">
      <rect width="6" height="6"/>
    </g>
    <g transform="translate(681.375,175.375) scale(3.9483333333333)">
      <rect width="6" height="6"/>
    </g>
    <g transform="translate(704.375,175.375) scale(3.9483333333333)">
      <rect width="6" height="6"/>
    </g>
    <g transform="translate(727.375,175.375) scale(3.9483333333333)">
      <rect width="6" height="6"/>
    </g>
    <g transform="translate(290.375,198.375) scale(3.9483333333333)">
      <rect width="6" height="6"/>
    </g>
    <g transform="translate(359.375,198.375) scale(3.9483333333333)">
      <rect width="6" height="6"/>
    </g>
    <g transform="translate(382.375,198.375) scale(3.9483333333333)">
      <rect width="6" height="6"/>
    </g>
    <g transform="translate(405.375,198.375) scale(3.9483333333333)">
      <rect width="6" height="6"/>
    </g>
    <g transform="translate(474.375,198.375) scale(3.9483333333333)">
      <rect width="6" height="6"/>
    </g>
    <g transform="translate(497.375,198.375) scale(3.9483333333333)">
      <rect width="6" height="6"/>
    </g>
    <g transform="translate(566.375,198.375) scale(3.9483333333333)">
      <rect width="6" height="6"/>
    </g>
    <g transform="translate(589.375,198.375) scale(3.9483333333333)">
      <rect width="6" height="6"/>
    </g>
    <g transform="translate(612.375,198.375) scale(3.9483333333333)">
      <rect width="6" height="6"/>
    </g>
    <g transform="translate(635.375,198.375) scale(3.9483333333333)">
      <rect width="6" height="6"/>
    </g>
    <g transform="translate(681.375,198.375) scale(3.9483333333333)">
      <rect width="6" height="6"/>
    </g>
    <g transform="translate(290.375,221.375) scale(3.9483333333333)">
      <rect width="6" height="6"/>
    </g>
    <g transform="translate(336.375,221.375) scale(3.9483333333333)">
      <rect width="6" height="6"/>
    </g>
    <g transform="translate(359.375,221.375) scale(3.9483333333333)">
      <rect width="6" height="6"/>
    </g>
    <g transform="translate(382.375,221.375) scale(3.9483333333333)">
      <rect width="6" height="6"/>
    </g>
    <g transform="translate(428.375,221.375) scale(3.9483333333333)">
      <rect width="6" height="6"/>
    </g>
    <g transform="translate(451.375,221.375) scale(3.9483333333333)">
      <rect width="6" height="6"/>
    </g>
    <g transform="translate(474.375,221.375) scale(3.9483333333333)">
      <rect width="6" height="6"/>
    </g>
    <g transform="translate(543.375,221.375) scale(3.9483333333333)">
      <rect width="6" height="6"/>
    </g>
    <g transform="translate(566.375,221.375) scale(3.9483333333333)">
      <rect width="6" height="6"/>
    </g>
    <g transform="translate(589.375,221.375) scale(3.9483333333333)">
      <rect width="6" height="6"/>
    </g>
    <g transform="translate(612.375,221.375) scale(3.9483333333333)">
      <rect width="6" height="6"/>
    </g>
    <g transform="translate(681.375,221.375) scale(3.9483333333333)">
      <rect width="6" height="6"/>
    </g>
    <g transform="translate(704.375,221.375) scale(3.9483333333333)">
      <rect width="6" height="6"/>
    </g>
    <g transform="translate(727.375,221.375) scale(3.9483333333333)">
      <rect width="6" height="6"/>
    </g>
    <g transform="translate(750.375,221.375) scale(3.9483333333333)">
      <rect width="6" height="6"/>
    </g>
    <g transform="translate(290.375,244.375) scale(3.9483333333333)">
      <rect width="6" height="6"/>
    </g>
    <g transform="translate(336.375,244.375) scale(3.9483333333333)">
      <rect width="6" height="6"/>
    </g>
    <g transform="translate(382.375,244.375) scale(3.9483333333333)">
      <rect width="6" height="6"/>
    </g>
    <g transform="translate(428.375,244.375) scale(3.9483333333333)">
      <rect width="6" height="6"/>
    </g>
    <g transform="translate(474.375,244.375) scale(3.9483333333333)">
      <rect width="6" height="6"/>
    </g>
    <g transform="translate(520.375,244.375) scale(3.9483333333333)">
      <rect width="6" height="6"/>
    </g>
    <g transform="translate(566.375,244.375) scale(3.9483333333333)">
      <rect width="6" height="6"/>
    </g>
    <g transform="translate(612.375,244.375) scale(3.9483333333333)">
      <rect width="6" height="6"/>
    </g>
    <g transform="translate(658.375,244.375) scale(3.9483333333333)">
      <rect width="6" height="6"/>
    </g>
    <g transform="translate(704.375,244.375) scale(3.9483333333333)">
      <rect width="6" height="6"/>
    </g>
    <g transform="translate(750.375,244.375) scale(3.9483333333333)">
      <rect width="6" height="6"/>
    </g>
    <g transform="translate(313.375,267.375) scale(3.9483333333333)">
      <rect width="6" height="6"/>
    </g>
    <g transform="translate(382.375,267.375) scale(3.9483333333333)">
      <rect width="6" height="6"/>
    </g>
    <g transform="translate(451.375,267.375) scale(3.9483333333333)">
      <rect width="6" height="6"/>
    </g>
    <g transform="translate(497.375,267.375) scale(3.9483333333333)">
      <rect width="6" height="6"/>
    </g>
    <g transform="translate(520.375,267.375) scale(3.9483333333333)">
      <rect width="6" height="6"/>
    </g>
    <g transform="translate(566.375,267.375) scale(3.9483333333333)">
      <rect width="6" height="6"/>
    </g>
    <g transform="translate(589.375,267.375) scale(3.9483333333333)">
      <rect width="6" height="6"/>
    </g>
    <g transform="translate(750.375,267.375) scale(3.9483333333333)">
      <rect width="6" height="6"/>
    </g>
    <g transform="translate(129.375,290.375) scale(3.9483333333333)">
      <rect width="6" height="6"/>
    </g>
    <g transform="translate(152.375,290.375) scale(3.9483333333333)">
      <rect width="6" height="6"/>
    </g>
    <g transform="translate(175.375,290.375) scale(3.9483333333333)">
      <rect width="6" height="6"/>
    </g>
    <g transform="translate(198.375,290.375) scale(3.9483333333333)">
      <rect width="6" height="6"/>
    </g>
    <g transform="translate(221.375,290.375) scale(3.9483333333333)">
      <rect width="6" height="6"/>
    </g>
    <g transform="translate(244.375,290.375) scale(3.9483333333333)">
      <rect width="6" height="6"/>
    </g>
    <g transform="translate(267.375,290.375) scale(3.9483333333333)">
      <rect width="6" height="6"/>
    </g>
    <g transform="translate(313.375,290.375) scale(3.9483333333333)">
      <rect width="6" height="6"/>
    </g>
    <g transform="translate(336.375,290.375) scale(3.9483333333333)">
      <rect width="6" height="6"/>
    </g>
    <g transform="translate(359.375,290.375) scale(3.9483333333333)">
      <rect width="6" height="6"/>
    </g>
    <g transform="translate(405.375,290.375) scale(3.9483333333333)">
      <rect width="6" height="6"/>
    </g>
    <g transform="translate(497.375,290.375) scale(3.9483333333333)">
      <rect width="6" height="6"/>
    </g>
    <g transform="translate(520.375,290.375) scale(3.9483333333333)">
      <rect width="6" height="6"/>
    </g>
    <g transform="translate(566.375,290.375) scale(3.9483333333333)">
      <rect width="6" height="6"/>
    </g>
    <g transform="translate(612.375,290.375) scale(3.9483333333333)">
      <rect width="6" height="6"/>
    </g>
    <g transform="translate(681.375,290.375) scale(3.9483333333333)">
      <rect width="6" height="6"/>
    </g>
    <g transform="translate(819.375,290.375) scale(3.9483333333333)">
      <rect width="6" height="6"/>
    </g>
    <g transform="translate(842.375,290.375) scale(3.9483333333333)">
      <rect width="6" height="6"/>
    </g>
    <g transform="translate(934.375,290.375) scale(3.9483333333333)">
      <rect width="6" height="6"/>
    </g>
    <g transform="translate(106.375,313.375) scale(3.9483333333333)">
      <rect width="6" height="6"/>
    </g>
    <g transform="translate(129.375,313.375) scale(3.9483333333333)">
      <rect width="6" height="6"/>
    </g>
    <g transform="translate(198.375,313.375) scale(3.9483333333333)">
      <rect width="6" height="6"/>
    </g>
    <g transform="translate(221.375,313.375) scale(3.9483333333333)">
      <rect width="6" height="6"/>
    </g>
    <g transform="translate(290.375,313.375) scale(3.9483333333333)">
      <rect width="6" height="6"/>
    </g>
    <g transform="translate(474.375,313.375) scale(3.9483333333333)">
      <rect width="6" height="6"/>
    </g>
    <g transform="translate(497.375,313.375) scale(3.9483333333333)">
      <rect width="6" height="6"/>
    </g>
    <g transform="translate(520.375,313.375) scale(3.9483333333333)">
      <rect width="6" height="6"/>
    </g>
    <g transform="translate(543.375,313.375) scale(3.9483333333333)">
      <rect width="6" height="6"/>
    </g>
    <g transform="translate(589.375,313.375) scale(3.9483333333333)">
      <rect width="6" height="6"/>
    </g>
    <g transform="translate(612.375,313.375) scale(3.9483333333333)">
      <rect width="6" height="6"/>
    </g>
    <g transform="translate(681.375,313.375) scale(3.9483333333333)">
      <rect width="6" height="6"/>
    </g>
    <g transform="translate(704.375,313.375) scale(3.9483333333333)">
      <rect width="6" height="6"/>
    </g>
    <g transform="translate(750.375,313.375) scale(3.9483333333333)">
      <rect width="6" height="6"/>
    </g>
    <g transform="translate(773.375,313.375) scale(3.9483333333333)">
      <rect width="6" height="6"/>
    </g>
    <g transform="translate(819.375,313.375) scale(3.9483333333333)">
      <rect width="6" height="6"/>
    </g>
    <g transform="translate(865.375,313.375) scale(3.9483333333333)">
      <rect width="6" height="6"/>
    </g>
    <g transform="translate(106.375,336.375) scale(3.9483333333333)">
      <rect width="6" height="6"/>
    </g>
    <g transform="translate(152.375,336.375) scale(3.9483333333333)">
      <rect width="6" height="6"/>
    </g>
    <g transform="translate(244.375,336.375) scale(3.9483333333333)">
      <rect width="6" height="6"/>
    </g>
    <g transform="translate(290.375,336.375) scale(3.9483333333333)">
      <rect width="6" height="6"/>
    </g>
    <g transform="translate(313.375,336.375) scale(3.9483333333333)">
      <rect width="6" height="6"/>
    </g>
    <g transform="translate(428.375,336.375) scale(3.9483333333333)">
      <rect width="6" height="6"/>
    </g>
    <g transform="translate(474.375,336.375) scale(3.9483333333333)">
      <rect width="6" height="6"/>
    </g>
    <g transform="translate(589.375,336.375) scale(3.9483333333333)">
      <rect width="6" height="6"/>
    </g>
    <g transform="translate(681.375,336.375) scale(3.9483333333333)">
      <rect width="6" height="6"/>
    </g>
    <g transform="translate(704.375,336.375) scale(3.9483333333333)">
      <rect width="6" height="6"/>
    </g>
    <g transform="translate(727.375,336.375) scale(3.9483333333333)">
      <rect width="6" height="6"/>
    </g>
    <g transform="translate(750.375,336.375) scale(3.9483333333333)">
      <rect width="6" height="6"/>
    </g>
    <g transform="translate(796.375,336.375) scale(3.9483333333333)">
      <rect width="6" height="6"/>
    </g>
    <g transform="translate(819.375,336.375) scale(3.9483333333333)">
      <rect width="6" height="6"/>
    </g>
    <g transform="translate(888.375,336.375) scale(3.9483333333333)">
      <rect width="6" height="6"/>
    </g>
    <g transform="translate(911.375,336.375) scale(3.9483333333333)">
      <rect width="6" height="6"/>
    </g>
    <g transform="translate(934.375,336.375) scale(3.9483333333333)">
      <rect width="6" height="6"/>
    </g>
    <g transform="translate(129.375,359.375) scale(3.9483333333333)">
      <rect width="6" height="6"/>
    </g>
    <g transform="translate(152.375,359.375) scale(3.9483333333333)">
      <rect width="6" height="6"/>
    </g>
    <g transform="translate(198.375,359.375) scale(3.9483333333333)">
      <rect width="6" height="6"/>
    </g>
    <g transform="translate(313.375,359.375) scale(3.9483333333333)">
      <rect width="6" height="6"/>
    </g>
    <g transform="translate(336.375,359.375) scale(3.9483333333333)">
      <rect width="6" height="6"/>
    </g>
    <g transform="translate(359.375,359.375) scale(3.9483333333333)">
      <rect width="6" height="6"/>
    </g>
    <g transform="translate(428.375,359.375) scale(3.9483333333333)">
      <rect width="6" height="6"/>
    </g>
    <g transform="translate(451.375,359.375) scale(3.9483333333333)">
      <rect width="6" height="6"/>
    </g>
    <g transform="translate(543.375,359.375) scale(3.9483333333333)">
      <rect width="6" height="6"/>
    </g>
    <g transform="translate(566.375,359.375) scale(3.9483333333333)">
      <rect width="6" height="6"/>
    </g>
    <g transform="translate(589.375,359.375) scale(3.9483333333333)">
      <rect width="6" height="6"/>
    </g>
    <g transform="translate(635.375,359.375) scale(3.9483333333333)">
      <rect width="6" height="6"/>
    </g>
    <g transform="translate(704.375,359.375) scale(3.9483333333333)">
      <rect width="6" height="6"/>
    </g>
    <g transform="translate(750.375,359.375) scale(3.9483333333333)">
      <rect width="6" height="6"/>
    </g>
    <g transform="translate(796.375,359.375) scale(3.9483333333333)">
      <rect width="6" height="6"/>
    </g>
    <g transform="translate(842.375,359.375) scale(3.9483333333333)">
      <rect width="6" height="6"/>
    </g>
    <g transform="translate(129.375,382.375) scale(3.9483333333333)">
      <rect width="6" height="6"/>
    </g>
    <g transform="translate(152.375,382.375) scale(3.9483333333333)">
      <rect width="6" height="6"/>
    </g>
    <g transform="translate(244.375,382.375) scale(3.9483333333333)">
      <rect width="6" height="6"/>
    </g>
    <g transform="translate(290.375,382.375) scale(3.9483333333333)">
      <rect width="6" height="6"/>
    </g>
    <g transform="translate(313.375,382.375) scale(3.9483333333333)">
      <rect width="6" height="6"/>
    </g>
    <g transform="translate(405.375,382.375) scale(3.9483333333333)">
      <rect width="6" height="6"/>
    </g>
    <g transform="translate(428.375,382.375) scale(3.9483333333333)">
      <rect width="6" height="6"/>
    </g>
    <g transform="translate(520.375,382.375) scale(3.9483333333333)">
      <rect width="6" height="6"/>
    </g>
    <g transform="translate(543.375,382.375) scale(3.9483333333333)">
      <rect width="6" height="6"/>
    </g>
    <g transform="translate(612.375,382.375) scale(3.9483333333333)">
      <rect width="6" height="6"/>
    </g>
    <g transform="translate(635.375,382.375) scale(3.9483333333333)">
      <rect width="6" height="6"/>
    </g>
    <g transform="translate(658.375,382.375) scale(3.9483333333333)">
      <rect width="6" height="6"/>
    </g>
    <g transform="translate(681.375,382.375) scale(3.9483333333333)">
      <rect width="6" height="6"/>
    </g>
    <g transform="translate(704.375,382.375) scale(3.9483333333333)">
      <rect width="6" height="6"/>
    </g>
    <g transform="translate(773.375,382.375) scale(3.9483333333333)">
      <rect width="6" height="6"/>
    </g>
    <g transform="translate(796.375,382.375) scale(3.9483333333333)">
      <rect width="6" height="6"/>
    </g>
    <g transform="translate(865.375,382.375) scale(3.9483333333333)">
      <rect width="6" height="6"/>
    </g>
    <g transform="translate(888.375,382.375) scale(3.9483333333333)">
      <rect width="6" height="6"/>
    </g>
    <g transform="translate(934.375,382.375) scale(3.9483333333333)">
      <rect width="6" height="6"/>
    </g>
    <g transform="translate(198.375,405.375) scale(3.9483333333333)">
      <rect width="6" height="6"/>
    </g>
    <g transform="translate(267.375,405.375) scale(3.9483333333333)">
      <rect width="6" height="6"/>
    </g>
    <g transform="translate(290.375,405.375) scale(3.9483333333333)">
      <rect width="6" height="6"/>
    </g>
    <g transform="translate(359.375,405.375) scale(3.9483333333333)">
      <rect width="6" height="6"/>
    </g>
    <g transform="translate(474.375,405.375) scale(3.9483333333333)">
      <rect width="6" height="6"/>
    </g>
    <g transform="translate(520.375,405.375) scale(3.9483333333333)">
      <rect width="6" height="6"/>
    </g>
    <g transform="translate(566.375,405.375) scale(3.9483333333333)">
      <rect width="6" height="6"/>
    </g>
    <g transform="translate(589.375,405.375) scale(3.9483333333333)">
      <rect width="6" height="6"/>
    </g>
    <g transform="translate(635.375,405.375) scale(3.9483333333333)">
      <rect width="6" height="6"/>
    </g>
    <g transform="translate(681.375,405.375) scale(3.9483333333333)">
      <rect width="6" height="6"/>
    </g>
    <g transform="translate(750.375,405.375) scale(3.9483333333333)">
      <rect width="6" height="6"/>
    </g>
    <g transform="translate(773.375,405.375) scale(3.9483333333333)">
      <rect width="6" height="6"/>
    </g>
    <g transform="translate(819.375,405.375) scale(3.9483333333333)">
      <rect width="6" height="6"/>
    </g>
    <g transform="translate(865.375,405.375) scale(3.9483333333333)">
      <rect width="6" height="6"/>
    </g>
    <g transform="translate(888.375,405.375) scale(3.9483333333333)">
      <rect width="6" height="6"/>
    </g>
    <g transform="translate(106.375,428.375) scale(3.9483333333333)">
      <rect width="6" height="6"/>
    </g>
    <g transform="translate(129.375,428.375) scale(3.9483333333333)">
      <rect width="6" height="6"/>
    </g>
    <g transform="translate(198.375,428.375) scale(3.9483333333333)">
      <rect width="6" height="6"/>
    </g>
    <g transform="translate(221.375,428.375) scale(3.9483333333333)">
      <rect width="6" height="6"/>
    </g>
    <g transform="translate(244.375,428.375) scale(3.9483333333333)">
      <rect width="6" height="6"/>
    </g>
    <g transform="translate(267.375,428.375) scale(3.9483333333333)">
      <rect width="6" height="6"/>
    </g>
    <g transform="translate(359.375,428.375) scale(3.9483333333333)">
      <rect width="6" height="6"/>
    </g>
    <g transform="translate(382.375,428.375) scale(3.9483333333333)">
      <rect width="6" height="6"/>
    </g>
    <g transform="translate(405.375,428.375) scale(3.9483333333333)">
      <rect width="6" height="6"/>
    </g>
    <g transform="translate(428.375,428.375) scale(3.9483333333333)">
      <rect width="6" height="6"/>
    </g>
    <g transform="translate(451.375,428.375) scale(3.9483333333333)">
      <rect width="6" height="6"/>
    </g>
    <g transform="translate(497.375,428.375) scale(3.9483333333333)">
      <rect width="6" height="6"/>
    </g>
    <g transform="translate(543.375,428.375) scale(3.9483333333333)">
      <rect width="6" height="6"/>
    </g>
    <g transform="translate(566.375,428.375) scale(3.9483333333333)">
      <rect width="6" height="6"/>
    </g>
    <g transform="translate(589.375,428.375) scale(3.9483333333333)">
      <rect width="6" height="6"/>
    </g>
    <g transform="translate(658.375,428.375) scale(3.9483333333333)">
      <rect width="6" height="6"/>
    </g>
    <g transform="translate(727.375,428.375) scale(3.9483333333333)">
      <rect width="6" height="6"/>
    </g>
    <g transform="translate(773.375,428.375) scale(3.9483333333333)">
      <rect width="6" height="6"/>
    </g>
    <g transform="translate(819.375,428.375) scale(3.9483333333333)">
      <rect width="6" height="6"/>
    </g>
    <g transform="translate(842.375,428.375) scale(3.9483333333333)">
      <rect width="6" height="6"/>
    </g>
    <g transform="translate(865.375,428.375) scale(3.9483333333333)">
      <rect width="6" height="6"/>
    </g>
    <g transform="translate(911.375,428.375) scale(3.9483333333333)">
      <rect width="6" height="6"/>
    </g>
    <g transform="translate(934.375,428.375) scale(3.9483333333333)">
      <rect width="6" height="6"/>
    </g>
    <g transform="translate(106.375,451.375) scale(3.9483333333333)">
      <rect width="6" height="6"/>
    </g>
    <g transform="translate(129.375,451.375) scale(3.9483333333333)">
      <rect width="6" height="6"/>
    </g>
    <g transform="translate(152.375,451.375) scale(3.9483333333333)">
      <rect width="6" height="6"/>
    </g>
    <g transform="translate(198.375,451.375) scale(3.9483333333333)">
      <rect width="6" height="6"/>
    </g>
    <g transform="translate(221.375,451.375) scale(3.9483333333333)">
      <rect width="6" height="6"/>
    </g>
    <g transform="translate(359.375,451.375) scale(3.9483333333333)">
      <rect width="6" height="6"/>
    </g>
    <g transform="translate(382.375,451.375) scale(3.9483333333333)">
      <rect width="6" height="6"/>
    </g>
    <g transform="translate(451.375,451.375) scale(3.9483333333333)">
      <rect width="6" height="6"/>
    </g>
    <g transform="translate(497.375,451.375) scale(3.9483333333333)">
      <rect width="6" height="6"/>
    </g>
    <g transform="translate(520.375,451.375) scale(3.9483333333333)">
      <rect width="6" height="6"/>
    </g>
    <g transform="translate(543.375,451.375) scale(3.9483333333333)">
      <rect width="6" height="6"/>
    </g>
    <g transform="translate(589.375,451.375) scale(3.9483333333333)">
      <rect width="6" height="6"/>
    </g>
    <g transform="translate(612.375,451.375) scale(3.9483333333333)">
      <rect width="6" height="6"/>
    </g>
    <g transform="translate(704.375,451.375) scale(3.9483333333333)">
      <rect width="6" height="6"/>
    </g>
    <g transform="translate(750.375,451.375) scale(3.9483333333333)">
      <rect width="6" height="6"/>
    </g>
    <g transform="translate(773.375,451.375) scale(3.9483333333333)">
      <rect width="6" height="6"/>
    </g>
    <g transform="translate(819.375,451.375) scale(3.9483333333333)">
      <rect width="6" height="6"/>
    </g>
    <g transform="translate(842.375,451.375) scale(3.9483333333333)">
      <rect width="6" height="6"/>
    </g>
    <g transform="translate(106.375,474.375) scale(3.9483333333333)">
      <rect width="6" height="6"/>
    </g>
    <g transform="translate(129.375,474.375) scale(3.9483333333333)">
      <rect width="6" height="6"/>
    </g>
    <g transform="translate(175.375,474.375) scale(3.9483333333333)">
      <rect width="6" height="6"/>
    </g>
    <g transform="translate(198.375,474.375) scale(3.9483333333333)">
      <rect width="6" height="6"/>
    </g>
    <g transform="translate(221.375,474.375) scale(3.9483333333333)">
      <rect width="6" height="6"/>
    </g>
    <g transform="translate(244.375,474.375) scale(3.9483333333333)">
      <rect width="6" height="6"/>
    </g>
    <g transform="translate(290.375,474.375) scale(3.9483333333333)">
      <rect width="6" height="6"/>
    </g>
    <g transform="translate(336.375,474.375) scale(3.9483333333333)">
      <rect width="6" height="6"/>
    </g>
    <g transform="translate(359.375,474.375) scale(3.9483333333333)">
      <rect width="6" height="6"/>
    </g>
    <g transform="translate(382.375,474.375) scale(3.9483333333333)">
      <rect width="6" height="6"/>
    </g>
    <g transform="translate(405.375,474.375) scale(3.9483333333333)">
      <rect width="6" height="6"/>
    </g>
    <g transform="translate(497.375,474.375) scale(3.9483333333333)">
      <rect width="6" height="6"/>
    </g>
    <g transform="translate(543.375,474.375) scale(3.9483333333333)">
      <rect width="6" height="6"/>
    </g>
    <g transform="translate(566.375,474.375) scale(3.9483333333333)">
      <rect width="6" height="6"/>
    </g>
    <g transform="translate(589.375,474.375) scale(3.9483333333333)">
      <rect width="6" height="6"/>
    </g>
    <g transform="translate(681.375,474.375) scale(3.9483333333333)">
      <rect width="6" height="6"/>
    </g>
    <g transform="translate(704.375,474.375) scale(3.9483333333333)">
      <rect width="6" height="6"/>
    </g>
    <g transform="translate(773.375,474.375) scale(3.9483333333333)">
      <rect width="6" height="6"/>
    </g>
    <g transform="translate(796.375,474.375) scale(3.9483333333333)">
      <rect width="6" height="6"/>
    </g>
    <g transform="translate(842.375,474.375) scale(3.9483333333333)">
      <rect width="6" height="6"/>
    </g>
    <g transform="translate(888.375,474.375) scale(3.9483333333333)">
      <rect width="6" height="6"/>
    </g>
    <g transform="translate(911.375,474.375) scale(3.9483333333333)">
      <rect width="6" height="6"/>
    </g>
    <g transform="translate(152.375,497.375) scale(3.9483333333333)">
      <rect width="6" height="6"/>
    </g>
    <g transform="translate(175.375,497.375) scale(3.9483333333333)">
      <rect width="6" height="6"/>
    </g>
    <g transform="translate(221.375,497.375) scale(3.9483333333333)">
      <rect width="6" height="6"/>
    </g>
    <g transform="translate(290.375,497.375) scale(3.9483333333333)">
      <rect width="6" height="6"/>
    </g>
    <g transform="translate(405.375,497.375) scale(3.9483333333333)">
      <rect width="6" height="6"/>
    </g>
    <g transform="translate(428.375,497.375) scale(3.9483333333333)">
      <rect width="6" height="6"/>
    </g>
    <g transform="translate(451.375,497.375) scale(3.9483333333333)">
      <rect width="6" height="6"/>
    </g>
    <g transform="translate(520.375,497.375) scale(3.9483333333333)">
      <rect width="6" height="6"/>
    </g>
    <g transform="translate(589.375,497.375) scale(3.9483333333333)">
      <rect width="6" height="6"/>
    </g>
    <g transform="translate(612.375,497.375) scale(3.9483333333333)">
      <rect width="6" height="6"/>
    </g>
    <g transform="translate(658.375,497.375) scale(3.9483333333333)">
      <rect width="6" height="6"/>
    </g>
    <g transform="translate(681.375,497.375) scale(3.9483333333333)">
      <rect width="6" height="6"/>
    </g>
    <g transform="translate(704.375,497.375) scale(3.9483333333333)">
      <rect width="6" height="6"/>
    </g>
    <g transform="translate(750.375,497.375) scale(3.9483333333333)">
      <rect width="6" height="6"/>
    </g>
    <g transform="translate(796.375,497.375) scale(3.9483333333333)">
      <rect width="6" height="6"/>
    </g>
    <g transform="translate(865.375,497.375) scale(3.9483333333333)">
      <rect width="6" height="6"/>
    </g>
    <g transform="translate(106.375,520.375) scale(3.9483333333333)">
      <rect width="6" height="6"/>
    </g>
    <g transform="translate(129.375,520.375) scale(3.9483333333333)">
      <rect width="6" height="6"/>
    </g>
    <g transform="translate(152.375,520.375) scale(3.9483333333333)">
      <rect width="6" height="6"/>
    </g>
    <g transform="translate(175.375,520.375) scale(3.9483333333333)">
      <rect width="6" height="6"/>
    </g>
    <g transform="translate(244.375,520.375) scale(3.9483333333333)">
      <rect width="6" height="6"/>
    </g>
    <g transform="translate(267.375,520.375) scale(3.9483333333333)">
      <rect width="6" height="6"/>
    </g>
    <g transform="translate(359.375,520.375) scale(3.9483333333333)">
      <rect width="6" height="6"/>
    </g>
    <g transform="translate(382.375,520.375) scale(3.9483333333333)">
      <rect width="6" height="6"/>
    </g>
    <g transform="translate(428.375,520.375) scale(3.9483333333333)">
      <rect width="6" height="6"/>
    </g>
    <g transform="translate(474.375,520.375) scale(3.9483333333333)">
      <rect width="6" height="6"/>
    </g>
    <g transform="translate(497.375,520.375) scale(3.9483333333333)">
      <rect width="6" height="6"/>
    </g>
    <g transform="translate(543.375,520.375) scale(3.9483333333333)">
      <rect width="6" height="6"/>
    </g>
    <g transform="translate(589.375,520.375) scale(3.9483333333333)">
      <rect width="6" height="6"/>
    </g>
    <g transform="translate(612.375,520.375) scale(3.9483333333333)">
      <rect width="6" height="6"/>
    </g>
    <g transform="translate(704.375,520.375) scale(3.9483333333333)">
      <rect width="6" height="6"/>
    </g>
    <g transform="translate(727.375,520.375) scale(3.9483333333333)">
      <rect width="6" height="6"/>
    </g>
    <g transform="translate(773.375,520.375) scale(3.9483333333333)">
      <rect width="6" height="6"/>
    </g>
    <g transform="translate(796.375,520.375) scale(3.9483333333333)">
      <rect width="6" height="6"/>
    </g>
    <g transform="translate(819.375,520.375) scale(3.9483333333333)">
      <rect width="6" height="6"/>
    </g>
    <g transform="translate(888.375,520.375) scale(3.9483333333333)">
      <rect width="6" height="6"/>
    </g>
    <g transform="translate(911.375,520.375) scale(3.9483333333333)">
      <rect width="6" height="6"/>
    </g>
    <g transform="translate(934.375,520.375) scale(3.9483333333333)">
      <rect width="6" height="6"/>
    </g>
    <g transform="translate(129.375,543.375) scale(3.9483333333333)">
      <rect width="6" height="6"/>
    </g>
    <g transform="translate(198.375,543.375) scale(3.9483333333333)">
      <rect width="6" height="6"/>
    </g>
    <g transform="translate(221.375,543.375) scale(3.9483333333333)">
      <rect width="6" height="6"/>
    </g>
    <g transform="translate(313.375,543.375) scale(3.9483333333333)">
      <rect width="6" height="6"/>
    </g>
    <g transform="translate(428.375,543.375) scale(3.9483333333333)">
      <rect width="6" height="6"/>
    </g>
    <g transform="translate(451.375,543.375) scale(3.9483333333333)">
      <rect width="6" height="6"/>
    </g>
    <g transform="translate(474.375,543.375) scale(3.9483333333333)">
      <rect width="6" height="6"/>
    </g>
    <g transform="translate(520.375,543.375) scale(3.9483333333333)">
      <rect width="6" height="6"/>
    </g>
    <g transform="translate(543.375,543.375) scale(3.9483333333333)">
      <rect width="6" height="6"/>
    </g>
    <g transform="translate(566.375,543.375) scale(3.9483333333333)">
      <rect width="6" height="6"/>
    </g>
    <g transform="translate(589.375,543.375) scale(3.9483333333333)">
      <rect width="6" height="6"/>
    </g>
    <g transform="translate(612.375,543.375) scale(3.9483333333333)">
      <rect width="6" height="6"/>
    </g>
    <g transform="translate(658.375,543.375) scale(3.9483333333333)">
      <rect width="6" height="6"/>
    </g>
    <g transform="translate(819.375,543.375) scale(3.9483333333333)">
      <rect width="6" height="6"/>
    </g>
    <g transform="translate(842.375,543.375) scale(3.9483333333333)">
      <rect width="6" height="6"/>
    </g>
    <g transform="translate(106.375,566.375) scale(3.9483333333333)">
      <rect width="6" height="6"/>
    </g>
    <g transform="translate(129.375,566.375) scale(3.9483333333333)">
      <rect width="6" height="6"/>
    </g>
    <g transform="translate(175.375,566.375) scale(3.9483333333333)">
      <rect width="6" height="6"/>
    </g>
    <g transform="translate(198.375,566.375) scale(3.9483333333333)">
      <rect width="6" height="6"/>
    </g>
    <g transform="translate(244.375,566.375) scale(3.9483333333333)">
      <rect width="6" height="6"/>
    </g>
    <g transform="translate(290.375,566.375) scale(3.9483333333333)">
      <rect width="6" height="6"/>
    </g>
    <g transform="translate(451.375,566.375) scale(3.9483333333333)">
      <rect width="6" height="6"/>
    </g>
    <g transform="translate(497.375,566.375) scale(3.9483333333333)">
      <rect width="6" height="6"/>
    </g>
    <g transform="translate(520.375,566.375) scale(3.9483333333333)">
      <rect width="6" height="6"/>
    </g>
    <g transform="translate(543.375,566.375) scale(3.9483333333333)">
      <rect width="6" height="6"/>
    </g>
    <g transform="translate(612.375,566.375) scale(3.9483333333333)">
      <rect width="6" height="6"/>
    </g>
    <g transform="translate(704.375,566.375) scale(3.9483333333333)">
      <rect width="6" height="6"/>
    </g>
    <g transform="translate(727.375,566.375) scale(3.9483333333333)">
      <rect width="6" height="6"/>
    </g>
    <g transform="translate(773.375,566.375) scale(3.9483333333333)">
      <rect width="6" height="6"/>
    </g>
    <g transform="translate(796.375,566.375) scale(3.9483333333333)">
      <rect width="6" height="6"/>
    </g>
    <g transform="translate(819.375,566.375) scale(3.9483333333333)">
      <rect width="6" height="6"/>
    </g>
    <g transform="translate(842.375,566.375) scale(3.9483333333333)">
      <rect width="6" height="6"/>
    </g>
    <g transform="translate(865.375,566.375) scale(3.9483333333333)">
      <rect width="6" height="6"/>
    </g>
    <g transform="translate(888.375,566.375) scale(3.9483333333333)">
      <rect width="6" height="6"/>
    </g>
    <g transform="translate(911.375,566.375) scale(3.9483333333333)">
      <rect width="6" height="6"/>
    </g>
    <g transform="translate(934.375,566.375) scale(3.9483333333333)">
      <rect width="6" height="6"/>
    </g>
    <g transform="translate(221.375,589.375) scale(3.9483333333333)">
      <rect width="6" height="6"/>
    </g>
    <g transform="translate(267.375,589.375) scale(3.9483333333333)">
      <rect width="6" height="6"/>
    </g>
    <g transform="translate(290.375,589.375) scale(3.9483333333333)">
      <rect width="6" height="6"/>
    </g>
    <g transform="translate(313.375,589.375) scale(3.9483333333333)">
      <rect width="6" height="6"/>
    </g>
    <g transform="translate(359.375,589.375) scale(3.9483333333333)">
      <rect width="6" height="6"/>
    </g>
    <g transform="translate(382.375,589.375) scale(3.9483333333333)">
      <rect width="6" height="6"/>
    </g>
    <g transform="translate(428.375,589.375) scale(3.9483333333333)">
      <rect width="6" height="6"/>
    </g>
    <g transform="translate(451.375,589.375) scale(3.9483333333333)">
      <rect width="6" height="6"/>
    </g>
    <g transform="translate(520.375,589.375) scale(3.9483333333333)">
      <rect width="6" height="6"/>
    </g>
    <g transform="translate(543.375,589.375) scale(3.9483333333333)">
      <rect width="6" height="6"/>
    </g>
    <g transform="translate(566.375,589.375) scale(3.9483333333333)">
      <rect width="6" height="6"/>
    </g>
    <g transform="translate(589.375,589.375) scale(3.9483333333333)">
      <rect width="6" height="6"/>
    </g>
    <g transform="translate(635.375,589.375) scale(3.9483333333333)">
      <rect width="6" height="6"/>
    </g>
    <g transform="translate(819.375,589.375) scale(3.9483333333333)">
      <rect width="6" height="6"/>
    </g>
    <g transform="translate(865.375,589.375) scale(3.9483333333333)">
      <rect width="6" height="6"/>
    </g>
    <g transform="translate(934.375,589.375) scale(3.9483333333333)">
      <rect width="6" height="6"/>
    </g>
    <g transform="translate(198.375,612.375) scale(3.9483333333333)">
      <rect width="6" height="6"/>
    </g>
    <g transform="translate(244.375,612.375) scale(3.9483333333333)">
      <rect width="6" height="6"/>
    </g>
    <g transform="translate(359.375,612.375) scale(3.9483333333333)">
      <rect width="6" height="6"/>
    </g>
    <g transform="translate(382.375,612.375) scale(3.9483333333333)">
      <rect width="6" height="6"/>
    </g>
    <g transform="translate(405.375,612.375) scale(3.9483333333333)">
      <rect width="6" height="6"/>
    </g>
    <g transform="translate(428.375,612.375) scale(3.9483333333333)">
      <rect width="6" height="6"/>
    </g>
    <g transform="translate(520.375,612.375) scale(3.9483333333333)">
      <rect width="6" height="6"/>
    </g>
    <g transform="translate(543.375,612.375) scale(3.9483333333333)">
      <rect width="6" height="6"/>
    </g>
    <g transform="translate(658.375,612.375) scale(3.9483333333333)">
      <rect width="6" height="6"/>
    </g>
    <g transform="translate(681.375,612.375) scale(3.9483333333333)">
      <rect width="6" height="6"/>
    </g>
    <g transform="translate(727.375,612.375) scale(3.9483333333333)">
      <rect width="6" height="6"/>
    </g>
    <g transform="translate(796.375,612.375) scale(3.9483333333333)">
      <rect width="6" height="6"/>
    </g>
    <g transform="translate(911.375,612.375) scale(3.9483333333333)">
      <rect width="6" height="6"/>
    </g>
    <g transform="translate(934.375,612.375) scale(3.9483333333333)">
      <rect width="6" height="6"/>
    </g>
    <g transform="translate(106.375,635.375) scale(3.9483333333333)">
      <rect width="6" height="6"/>
    </g>
    <g transform="translate(129.375,635.375) scale(3.9483333333333)">
      <rect width="6" height="6"/>
    </g>
    <g transform="translate(175.375,635.375) scale(3.9483333333333)">
      <rect width="6" height="6"/>
    </g>
    <g transform="translate(198.375,635.375) scale(3.9483333333333)">
      <rect width="6" height="6"/>
    </g>
    <g transform="translate(221.375,635.375) scale(3.9483333333333)">
      <rect width="6" height="6"/>
    </g>
    <g transform="translate(267.375,635.375) scale(3.9483333333333)">
      <rect width="6" height="6"/>
    </g>
    <g transform="translate(382.375,635.375) scale(3.9483333333333)">
      <rect width="6" height="6"/>
    </g>
    <g transform="translate(405.375,635.375) scale(3.9483333333333)">
      <rect width="6" height="6"/>
    </g>
    <g transform="translate(428.375,635.375) scale(3.9483333333333)">
      <rect width="6" height="6"/>
    </g>
    <g transform="translate(451.375,635.375) scale(3.9483333333333)">
      <rect width="6" height="6"/>
    </g>
    <g transform="translate(520.375,635.375) scale(3.9483333333333)">
      <rect width="6" height="6"/>
    </g>
    <g transform="translate(589.375,635.375) scale(3.9483333333333)">
      <rect width="6" height="6"/>
    </g>
    <g transform="translate(635.375,635.375) scale(3.9483333333333)">
      <rect width="6" height="6"/>
    </g>
    <g transform="translate(658.375,635.375) scale(3.9483333333333)">
      <rect width="6" height="6"/>
    </g>
    <g transform="translate(773.375,635.375) scale(3.9483333333333)">
      <rect width="6" height="6"/>
    </g>
    <g transform="translate(819.375,635.375) scale(3.9483333333333)">
      <rect width="6" height="6"/>
    </g>
    <g transform="translate(129.375,658.375) scale(3.9483333333333)">
      <rect width="6" height="6"/>
    </g>
    <g transform="translate(152.375,658.375) scale(3.9483333333333)">
      <rect width="6" height="6"/>
    </g>
    <g transform="translate(198.375,658.375) scale(3.9483333333333)">
      <rect width="6" height="6"/>
    </g>
    <g transform="translate(221.375,658.375) scale(3.9483333333333)">
      <rect width="6" height="6"/>
    </g>
    <g transform="translate(244.375,658.375) scale(3.9483333333333)">
      <rect width="6" height="6"/>
    </g>
    <g transform="translate(336.375,658.375) scale(3.9483333333333)">
      <rect width="6" height="6"/>
    </g>
    <g transform="translate(405.375,658.375) scale(3.9483333333333)">
      <rect width="6" height="6"/>
    </g>
    <g transform="translate(451.375,658.375) scale(3.9483333333333)">
      <rect width="6" height="6"/>
    </g>
    <g transform="translate(520.375,658.375) scale(3.9483333333333)">
      <rect width="6" height="6"/>
    </g>
    <g transform="translate(543.375,658.375) scale(3.9483333333333)">
      <rect width="6" height="6"/>
    </g>
    <g transform="translate(612.375,658.375) scale(3.9483333333333)">
      <rect width="6" height="6"/>
    </g>
    <g transform="translate(658.375,658.375) scale(3.9483333333333)">
      <rect width="6" height="6"/>
    </g>
    <g transform="translate(773.375,658.375) scale(3.9483333333333)">
      <rect width="6" height="6"/>
    </g>
    <g transform="translate(796.375,658.375) scale(3.9483333333333)">
      <rect width="6" height="6"/>
    </g>
    <g transform="translate(842.375,658.375) scale(3.9483333333333)">
      <rect width="6" height="6"/>
    </g>
    <g transform="translate(865.375,658.375) scale(3.9483333333333)">
      <rect width="6" height="6"/>
    </g>
    <g transform="translate(888.375,658.375) scale(3.9483333333333)">
      <rect width="6" height="6"/>
    </g>
    <g transform="translate(934.375,658.375) scale(3.9483333333333)">
      <rect width="6" height="6"/>
    </g>
    <g transform="translate(106.375,681.375) scale(3.9483333333333)">
      <rect width="6" height="6"/>
    </g>
    <g transform="translate(152.375,681.375) scale(3.9483333333333)">
      <rect width="6" height="6"/>
    </g>
    <g transform="translate(198.375,681.375) scale(3.9483333333333)">
      <rect width="6" height="6"/>
    </g>
    <g transform="translate(221.375,681.375) scale(3.9483333333333)">
      <rect width="6" height="6"/>
    </g>
    <g transform="translate(267.375,681.375) scale(3.9483333333333)">
      <rect width="6" height="6"/>
    </g>
    <g transform="translate(313.375,681.375) scale(3.9483333333333)">
      <rect width="6" height="6"/>
    </g>
    <g transform="translate(336.375,681.375) scale(3.9483333333333)">
      <rect width="6" height="6"/>
    </g>
    <g transform="translate(359.375,681.375) scale(3.9483333333333)">
      <rect width="6" height="6"/>
    </g>
    <g transform="translate(451.375,681.375) scale(3.9483333333333)">
      <rect width="6" height="6"/>
    </g>
    <g transform="translate(497.375,681.375) scale(3.9483333333333)">
      <rect width="6" height="6"/>
    </g>
    <g transform="translate(566.375,681.375) scale(3.9483333333333)">
      <rect width="6" height="6"/>
    </g>
    <g transform="translate(635.375,681.375) scale(3.9483333333333)">
      <rect width="6" height="6"/>
    </g>
    <g transform="translate(658.375,681.375) scale(3.9483333333333)">
      <rect width="6" height="6"/>
    </g>
    <g transform="translate(750.375,681.375) scale(3.9483333333333)">
      <rect width="6" height="6"/>
    </g>
    <g transform="translate(819.375,681.375) scale(3.9483333333333)">
      <rect width="6" height="6"/>
    </g>
    <g transform="translate(888.375,681.375) scale(3.9483333333333)">
      <rect width="6" height="6"/>
    </g>
    <g transform="translate(106.375,704.375) scale(3.9483333333333)">
      <rect width="6" height="6"/>
    </g>
    <g transform="translate(152.375,704.375) scale(3.9483333333333)">
      <rect width="6" height="6"/>
    </g>
    <g transform="translate(175.375,704.375) scale(3.9483333333333)">
      <rect width="6" height="6"/>
    </g>
    <g transform="translate(221.375,704.375) scale(3.9483333333333)">
      <rect width="6" height="6"/>
    </g>
    <g transform="translate(244.375,704.375) scale(3.9483333333333)">
      <rect width="6" height="6"/>
    </g>
    <g transform="translate(313.375,704.375) scale(3.9483333333333)">
      <rect width="6" height="6"/>
    </g>
    <g transform="translate(451.375,704.375) scale(3.9483333333333)">
      <rect width="6" height="6"/>
    </g>
    <g transform="translate(474.375,704.375) scale(3.9483333333333)">
      <rect width="6" height="6"/>
    </g>
    <g transform="translate(612.375,704.375) scale(3.9483333333333)">
      <rect width="6" height="6"/>
    </g>
    <g transform="translate(681.375,704.375) scale(3.9483333333333)">
      <rect width="6" height="6"/>
    </g>
    <g transform="translate(704.375,704.375) scale(3.9483333333333)">
      <rect width="6" height="6"/>
    </g>
    <g transform="translate(727.375,704.375) scale(3.9483333333333)">
      <rect width="6" height="6"/>
    </g>
    <g transform="translate(750.375,704.375) scale(3.9483333333333)">
      <rect width="6" height="6"/>
    </g>
    <g transform="translate(796.375,704.375) scale(3.9483333333333)">
      <rect width="6" height="6"/>
    </g>
    <g transform="translate(819.375,704.375) scale(3.9483333333333)">
      <rect width="6" height="6"/>
    </g>
    <g transform="translate(888.375,704.375) scale(3.9483333333333)">
      <rect width="6" height="6"/>
    </g>
    <g transform="translate(911.375,704.375) scale(3.9483333333333)">
      <rect width="6" height="6"/>
    </g>
    <g transform="translate(934.375,704.375) scale(3.9483333333333)">
      <rect width="6" height="6"/>
    </g>
    <g transform="translate(106.375,727.375) scale(3.9483333333333)">
      <rect width="6" height="6"/>
    </g>
    <g transform="translate(290.375,727.375) scale(3.9483333333333)">
      <rect width="6" height="6"/>
    </g>
    <g transform="translate(359.375,727.375) scale(3.9483333333333)">
      <rect width="6" height="6"/>
    </g>
    <g transform="translate(382.375,727.375) scale(3.9483333333333)">
      <rect width="6" height="6"/>
    </g>
    <g transform="translate(428.375,727.375) scale(3.9483333333333)">
      <rect width="6" height="6"/>
    </g>
    <g transform="translate(451.375,727.375) scale(3.9483333333333)">
      <rect width="6" height="6"/>
    </g>
    <g transform="translate(543.375,727.375) scale(3.9483333333333)">
      <rect width="6" height="6"/>
    </g>
    <g transform="translate(589.375,727.375) scale(3.9483333333333)">
      <rect width="6" height="6"/>
    </g>
    <g transform="translate(612.375,727.375) scale(3.9483333333333)">
      <rect width="6" height="6"/>
    </g>
    <g transform="translate(635.375,727.375) scale(3.9483333333333)">
      <rect width="6" height="6"/>
    </g>
    <g transform="translate(658.375,727.375) scale(3.9483333333333)">
      <rect width="6" height="6"/>
    </g>
    <g transform="translate(704.375,727.375) scale(3.9483333333333)">
      <rect width="6" height="6"/>
    </g>
    <g transform="translate(727.375,727.375) scale(3.9483333333333)">
      <rect width="6" height="6"/>
    </g>
    <g transform="translate(773.375,727.375) scale(3.9483333333333)">
      <rect width="6" height="6"/>
    </g>
    <g transform="translate(819.375,727.375) scale(3.9483333333333)">
      <rect width="6" height="6"/>
    </g>
    <g transform="translate(842.375,727.375) scale(3.9483333333333)">
      <rect width="6" height="6"/>
    </g>
    <g transform="translate(911.375,727.375) scale(3.9483333333333)">
      <rect width="6" height="6"/>
    </g>
    <g transform="translate(934.375,727.375) scale(3.9483333333333)">
      <rect width="6" height="6"/>
    </g>
    <g transform="translate(106.375,750.375) scale(3.9483333333333)">
      <rect width="6" height="6"/>
    </g>
    <g transform="translate(152.375,750.375) scale(3.9483333333333)">
      <rect width="6" height="6"/>
    </g>
    <g transform="translate(175.375,750.375) scale(3.9483333333333)">
      <rect width="6" height="6"/>
    </g>
    <g transform="translate(198.375,750.375) scale(3.9483333333333)">
      <rect width="6" height="6"/>
    </g>
    <g transform="translate(221.375,750.375) scale(3.9483333333333)">
      <rect width="6" height="6"/>
    </g>
    <g transform="translate(244.375,750.375) scale(3.9483333333333)">
      <rect width="6" height="6"/>
    </g>
    <g transform="translate(313.375,750.375) scale(3.9483333333333)">
      <rect width="6" height="6"/>
    </g>
    <g transform="translate(382.375,750.375) scale(3.9483333333333)">
      <rect width="6" height="6"/>
    </g>
    <g transform="translate(428.375,750.375) scale(3.9483333333333)">
      <rect width="6" height="6"/>
    </g>
    <g transform="translate(474.375,750.375) scale(3.9483333333333)">
      <rect width="6" height="6"/>
    </g>
    <g transform="translate(520.375,750.375) scale(3.9483333333333)">
      <rect width="6" height="6"/>
    </g>
    <g transform="translate(543.375,750.375) scale(3.9483333333333)">
      <rect width="6" height="6"/>
    </g>
    <g transform="translate(681.375,750.375) scale(3.9483333333333)">
      <rect width="6" height="6"/>
    </g>
    <g transform="translate(704.375,750.375) scale(3.9483333333333)">
      <rect width="6" height="6"/>
    </g>
    <g transform="translate(750.375,750.375) scale(3.9483333333333)">
      <rect width="6" height="6"/>
    </g>
    <g transform="translate(773.375,750.375) scale(3.9483333333333)">
      <rect width="6" height="6"/>
    </g>
    <g transform="translate(796.375,750.375) scale(3.9483333333333)">
      <rect width="6" height="6"/>
    </g>
    <g transform="translate(819.375,750.375) scale(3.9483333333333)">
      <rect width="6" height="6"/>
    </g>
    <g transform="translate(842.375,750.375) scale(3.9483333333333)">
      <rect width="6" height="6"/>
    </g>
    <g transform="translate(865.375,750.375) scale(3.9483333333333)">
      <rect width="6" height="6"/>
    </g>
    <g transform="translate(888.375,750.375) scale(3.9483333333333)">
      <rect width="6" height="6"/>
    </g>
    <g transform="translate(934.375,750.375) scale(3.9483333333333)">
      <rect width="6" height="6"/>
    </g>
    <g transform="translate(290.375,773.375) scale(3.9483333333333)">
      <rect width="6" height="6"/>
    </g>
    <g transform="translate(313.375,773.375) scale(3.9483333333333)">
      <rect width="6" height="6"/>
    </g>
    <g transform="translate(336.375,773.375) scale(3.9483333333333)">
      <rect width="6" height="6"/>
    </g>
    <g transform="translate(382.375,773.375) scale(3.9483333333333)">
      <rect width="6" height="6"/>
    </g>
    <g transform="translate(428.375,773.375) scale(3.9483333333333)">
      <rect width="6" height="6"/>
    </g>
    <g transform="translate(474.375,773.375) scale(3.9483333333333)">
      <rect width="6" height="6"/>
    </g>
    <g transform="translate(520.375,773.375) scale(3.9483333333333)">
      <rect width="6" height="6"/>
    </g>
    <g transform="translate(543.375,773.375) scale(3.9483333333333)">
      <rect width="6" height="6"/>
    </g>
    <g transform="translate(612.375,773.375) scale(3.9483333333333)">
      <rect width="6" height="6"/>
    </g>
    <g transform="translate(635.375,773.375) scale(3.9483333333333)">
      <rect width="6" height="6"/>
    </g>
    <g transform="translate(727.375,773.375) scale(3.9483333333333)">
      <rect width="6" height="6"/>
    </g>
    <g transform="translate(750.375,773.375) scale(3.9483333333333)">
      <rect width="6" height="6"/>
    </g>
    <g transform="translate(842.375,773.375) scale(3.9483333333333)">
      <rect width="6" height="6"/>
    </g>
    <g transform="translate(290.375,796.375) scale(3.9483333333333)">
      <rect width="6" height="6"/>
    </g>
    <g transform="translate(313.375,796.375) scale(3.9483333333333)">
      <rect width="6" height="6"/>
    </g>
    <g transform="translate(336.375,796.375) scale(3.9483333333333)">
      <rect width="6" height="6"/>
    </g>
    <g transform="translate(382.375,796.375) scale(3.9483333333333)">
      <rect width="6" height="6"/>
    </g>
    <g transform="translate(405.375,796.375) scale(3.9483333333333)">
      <rect width="6" height="6"/>
    </g>
    <g transform="translate(451.375,796.375) scale(3.9483333333333)">
      <rect width="6" height="6"/>
    </g>
    <g transform="translate(474.375,796.375) scale(3.9483333333333)">
      <rect width="6" height="6"/>
    </g>
    <g transform="translate(497.375,796.375) scale(3.9483333333333)">
      <rect width="6" height="6"/>
    </g>
    <g transform="translate(543.375,796.375) scale(3.9483333333333)">
      <rect width="6" height="6"/>
    </g>
    <g transform="translate(612.375,796.375) scale(3.9483333333333)">
      <rect width="6" height="6"/>
    </g>
    <g transform="translate(681.375,796.375) scale(3.9483333333333)">
      <rect width="6" height="6"/>
    </g>
    <g transform="translate(750.375,796.375) scale(3.9483333333333)">
      <rect width="6" height="6"/>
    </g>
    <g transform="translate(796.375,796.375) scale(3.9483333333333)">
      <rect width="6" height="6"/>
    </g>
    <g transform="translate(842.375,796.375) scale(3.9483333333333)">
      <rect width="6" height="6"/>
    </g>
    <g transform="translate(865.375,796.375) scale(3.9483333333333)">
      <rect width="6" height="6"/>
    </g>
    <g transform="translate(934.375,796.375) scale(3.9483333333333)">
      <rect width="6" height="6"/>
    </g>
    <g transform="translate(290.375,819.375) scale(3.9483333333333)">
      <rect width="6" height="6"/>
    </g>
    <g transform="translate(336.375,819.375) scale(3.9483333333333)">
      <rect width="6" height="6"/>
    </g>
    <g transform="translate(428.375,819.375) scale(3.9483333333333)">
      <rect width="6" height="6"/>
    </g>
    <g transform="translate(451.375,819.375) scale(3.9483333333333)">
      <rect width="6" height="6"/>
    </g>
    <g transform="translate(497.375,819.375) scale(3.9483333333333)">
      <rect width="6" height="6"/>
    </g>
    <g transform="translate(658.375,819.375) scale(3.9483333333333)">
      <rect width="6" height="6"/>
    </g>
    <g transform="translate(704.375,819.375) scale(3.9483333333333)">
      <rect width="6" height="6"/>
    </g>
    <g transform="translate(750.375,819.375) scale(3.9483333333333)">
      <rect width="6" height="6"/>
    </g>
    <g transform="translate(842.375,819.375) scale(3.9483333333333)">
      <rect width="6" height="6"/>
    </g>
    <g transform="translate(290.375,842.375) scale(3.9483333333333)">
      <rect width="6" height="6"/>
    </g>
    <g transform="translate(405.375,842.375) scale(3.9483333333333)">
      <rect width="6" height="6"/>
    </g>
    <g transform="translate(428.375,842.375) scale(3.9483333333333)">
      <rect width="6" height="6"/>
    </g>
    <g transform="translate(497.375,842.375) scale(3.9483333333333)">
      <rect width="6" height="6"/>
    </g>
    <g transform="translate(520.375,842.375) scale(3.9483333333333)">
      <rect width="6" height="6"/>
    </g>
    <g transform="translate(543.375,842.375) scale(3.9483333333333)">
      <rect width="6" height="6"/>
    </g>
    <g transform="translate(566.375,842.375) scale(3.9483333333333)">
      <rect width="6" height="6"/>
    </g>
    <g transform="translate(589.375,842.375) scale(3.9483333333333)">
      <rect width="6" height="6"/>
    </g>
    <g transform="translate(612.375,842.375) scale(3.9483333333333)">
      <rect width="6" height="6"/>
    </g>
    <g transform="translate(635.375,842.375) scale(3.9483333333333)">
      <rect width="6" height="6"/>
    </g>
    <g transform="translate(658.375,842.375) scale(3.9483333333333)">
      <rect width="6" height="6"/>
    </g>
    <g transform="translate(681.375,842.375) scale(3.9483333333333)">
      <rect width="6" height="6"/>
    </g>
    <g transform="translate(704.375,842.375) scale(3.9483333333333)">
      <rect width="6" height="6"/>
    </g>
    <g transform="translate(727.375,842.375) scale(3.9483333333333)">
      <rect width="6" height="6"/>
    </g>
    <g transform="translate(750.375,842.375) scale(3.9483333333333)">
      <rect width="6" height="6"/>
    </g>
    <g transform="translate(773.375,842.375) scale(3.9483333333333)">
      <rect width="6" height="6"/>
    </g>
    <g transform="translate(796.375,842.375) scale(3.9483333333333)">
      <rect width="6" height="6"/>
    </g>
    <g transform="translate(819.375,842.375) scale(3.9483333333333)">
      <rect width="6" height="6"/>
    </g>
    <g transform="translate(842.375,842.375) scale(3.9483333333333)">
      <rect width="6" height="6"/>
    </g>
    <g transform="translate(888.375,842.375) scale(3.9483333333333)">
      <rect width="6" height="6"/>
    </g>
    <g transform="translate(934.375,842.375) scale(3.9483333333333)">
      <rect width="6" height="6"/>
    </g>
    <g transform="translate(290.375,865.375) scale(3.9483333333333)">
      <rect width="6" height="6"/>
    </g>
    <g transform="translate(313.375,865.375) scale(3.9483333333333)">
      <rect width="6" height="6"/>
    </g>
    <g transform="translate(359.375,865.375) scale(3.9483333333333)">
      <rect width="6" height="6"/>
    </g>
    <g transform="translate(382.375,865.375) scale(3.9483333333333)">
      <rect width="6" height="6"/>
    </g>
    <g transform="translate(428.375,865.375) scale(3.9483333333333)">
      <rect width="6" height="6"/>
    </g>
    <g transform="translate(497.375,865.375) scale(3.9483333333333)">
      <rect width="6" height="6"/>
    </g>
    <g transform="translate(589.375,865.375) scale(3.9483333333333)">
      <rect width="6" height="6"/>
    </g>
    <g transform="translate(704.375,865.375) scale(3.9483333333333)">
      <rect width="6" height="6"/>
    </g>
    <g transform="translate(796.375,865.375) scale(3.9483333333333)">
      <rect width="6" height="6"/>
    </g>
    <g transform="translate(842.375,865.375) scale(3.9483333333333)">
      <rect width="6" height="6"/>
    </g>
    <g transform="translate(888.375,865.375) scale(3.9483333333333)">
      <rect width="6" height="6"/>
    </g>
    <g transform="translate(911.375,865.375) scale(3.9483333333333)">
      <rect width="6" height="6"/>
    </g>
    <g transform="translate(290.375,888.375) scale(3.9483333333333)">
      <rect width="6" height="6"/>
    </g>
    <g transform="translate(336.375,888.375) scale(3.9483333333333)">
      <rect width="6" height="6"/>
    </g>
    <g transform="translate(382.375,888.375) scale(3.9483333333333)">
      <rect width="6" height="6"/>
    </g>
    <g transform="translate(520.375,888.375) scale(3.9483333333333)">
      <rect width="6" height="6"/>
    </g>
    <g transform="translate(566.375,888.375) scale(3.9483333333333)">
      <rect width="6" height="6"/>
    </g>
    <g transform="translate(589.375,888.375) scale(3.9483333333333)">
      <rect width="6" height="6"/>
    </g>
    <g transform="translate(635.375,888.375) scale(3.9483333333333)">
      <rect width="6" height="6"/>
    </g>
    <g transform="translate(658.375,888.375) scale(3.9483333333333)">
      <rect width="6" height="6"/>
    </g>
    <g transform="translate(681.375,888.375) scale(3.9483333333333)">
      <rect width="6" height="6"/>
    </g>
    <g transform="translate(704.375,888.375) scale(3.9483333333333)">
      <rect width="6" height="6"/>
    </g>
    <g transform="translate(727.375,888.375) scale(3.9483333333333)">
      <rect width="6" height="6"/>
    </g>
    <g transform="translate(750.375,888.375) scale(3.9483333333333)">
      <rect width="6" height="6"/>
    </g>
    <g transform="translate(773.375,888.375) scale(3.9483333333333)">
      <rect width="6" height="6"/>
    </g>
    <g transform="translate(819.375,888.375) scale(3.9483333333333)">
      <rect width="6" height="6"/>
    </g>
    <g transform="translate(888.375,888.375) scale(3.9483333333333)">
      <rect width="6" height="6"/>
    </g>
    <g transform="translate(934.375,888.375) scale(3.9483333333333)">
      <rect width="6" height="6"/>
    </g>
    <g transform="translate(290.375,911.375) scale(3.9483333333333)">
      <rect width="6" height="6"/>
    </g>
    <g transform="translate(336.375,911.375) scale(3.9483333333333)">
      <rect width="6" height="6"/>
    </g>
    <g transform="translate(382.375,911.375) scale(3.9483333333333)">
      <rect width="6" height="6"/>
    </g>
    <g transform="translate(405.375,911.375) scale(3.9483333333333)">
      <rect width="6" height="6"/>
    </g>
    <g transform="translate(428.375,911.375) scale(3.9483333333333)">
      <rect width="6" height="6"/>
    </g>
    <g transform="translate(451.375,911.375) scale(3.9483333333333)">
      <rect width="6" height="6"/>
    </g>
    <g transform="translate(474.375,911.375) scale(3.9483333333333)">
      <rect width="6" height="6"/>
    </g>
    <g transform="translate(589.375,911.375) scale(3.9483333333333)">
      <rect width="6" height="6"/>
    </g>
    <g transform="translate(612.375,911.375) scale(3.9483333333333)">
      <rect width="6" height="6"/>
    </g>
    <g transform="translate(635.375,911.375) scale(3.9483333333333)">
      <rect width="6" height="6"/>
    </g>
    <g transform="translate(704.375,911.375) scale(3.9483333333333)">
      <rect width="6" height="6"/>
    </g>
    <g transform="translate(750.375,911.375) scale(3.9483333333333)">
      <rect width="6" height="6"/>
    </g>
    <g transform="translate(796.375,911.375) scale(3.9483333333333)">
      <rect width="6" height="6"/>
    </g>
    <g transform="translate(842.375,911.375) scale(3.9483333333333)">
      <rect width="6" height="6"/>
    </g>
    <g transform="translate(934.375,911.375) scale(3.9483333333333)">
      <rect width="6" height="6"/>
    </g>
    <g transform="translate(313.375,934.375) scale(3.9483333333333)">
      <rect width="6" height="6"/>
    </g>
    <g transform="translate(336.375,934.375) scale(3.9483333333333)">
      <rect width="6" height="6"/>
    </g>
    <g transform="translate(428.375,934.375) scale(3.9483333333333)">
      <rect width="6" height="6"/>
    </g>
    <g transform="translate(566.375,934.375) scale(3.9483333333333)">
      <rect width="6" height="6"/>
    </g>
    <g transform="translate(635.375,934.375) scale(3.9483333333333)">
      <rect width="6" height="6"/>
    </g>
    <g transform="translate(681.375,934.375) scale(3.9483333333333)">
      <rect width="6" height="6"/>
    </g>
    <g transform="translate(704.375,934.375) scale(3.9483333333333)">
      <rect width="6" height="6"/>
    </g>
    <g transform="translate(773.375,934.375) scale(3.9483333333333)">
      <rect width="6" height="6"/>
    </g>
    <g transform="translate(796.375,934.375) scale(3.9483333333333)">
      <rect width="6" height="6"/>
    </g>
    <g transform="translate(842.375,934.375) scale(3.9483333333333)">
      <rect width="6" height="6"/>
    </g>
    <g transform="translate(865.375,934.375) scale(3.9483333333333)">
      <rect width="6" height="6"/>
    </g>
    <g transform="translate(888.375,934.375) scale(3.9483333333333)">
      <rect width="6" height="6"/>
    </g>
    <g transform="translate(911.375,934.375) scale(3.9483333333333)">
      <rect width="6" height="6"/>
    </g>
    <g transform="translate(934.375,934.375) scale(3.9483333333333)">
      <rect width="6" height="6"/>
    </g>
    <g transform="translate(106.375,106.375)">
      <g transform="scale(11.5)">
        <path d="M0,0v14h14V0H0z M12,12H2V2h10V12z"/>
      </g>
    </g>
    <g transform="translate(796.375,106.375)">
      <g transform="scale(11.5)">
        <path d="M0,0v14h14V0H0z M12,12H2V2h10V12z"/>
      </g>
    </g>
    <g transform="translate(106.375,796.375)">
      <g transform="scale(11.5)">
        <path d="M0,0v14h14V0H0z M12,12H2V2h10V12z"/>
      </g>
    </g>
    <g transform="translate(152.375,152.375)">
      <g transform="scale(11.5)">
        <rect width="6" height="6"/>
      </g>
    </g>
    <g transform="translate(842.375,152.375)">
      <g transform="scale(11.5)">
        <rect width="6" height="6"/>
      </g>
    </g>
    <g transform="translate(152.375,842.375)">
      <g transform="scale(11.5)">
        <rect width="6" height="6"/>
      </g>
    </g>
  </g>
</svg>